<?xml version="1.0" encoding="utf-8"?>
<!-- Generator: Adobe Illustrator 25.2.0, SVG Export Plug-In . SVG Version: 6.00 Build 0)  -->
<svg version="1.1" id="레이어_1" xmlns="http://www.w3.org/2000/svg" xmlns:xlink="http://www.w3.org/1999/xlink" x="0px"
	 y="0px" viewBox="0 0 24 24" style="enable-background:new 0 0 24 24;" xml:space="preserve">
<style type="text/css">
	.st0{fill:none;}
	.st1{fill:#2ECC71;}
</style>
<path class="st0" d="M0,0h24v24H0V0z"/>
<path class="st1" d="M14.1,10.5c-0.4-0.4-1-0.4-1.4,0L12,11.2c-0.8,0.8-2,0.8-2.8,0c-0.8-0.8-0.8-2,0-2.8c0,0,0,0,0,0l5.6-5.6
	c3.5-0.8,7,1.4,7.8,4.9c0.5,2-0.1,4.1-1.4,5.7l-2.1,2.1L14.1,10.5L14.1,10.5z M3.2,4.5c2.1-2.1,5.4-2.5,8-0.9L7.8,6.9
	c-1.6,1.6-1.6,4.1,0,5.7c1.5,1.5,3.9,1.6,5.5,0.1l0.1-0.1l4.2,4.2l-4.2,4.2c-0.8,0.8-2,0.8-2.8,0l-7.4-7.4C0.6,11.1,0.6,7,3.2,4.5
	L3.2,4.5z"/>
</svg>
