<?xml version="1.0" encoding="utf-8"?>
<!-- Generator: Adobe Illustrator 25.2.0, SVG Export Plug-In . SVG Version: 6.00 Build 0)  -->
<svg version="1.1" id="레이어_1" xmlns="http://www.w3.org/2000/svg" xmlns:xlink="http://www.w3.org/1999/xlink" x="0px"
	 y="0px" viewBox="0 0 24 24" style="enable-background:new 0 0 24 24;" xml:space="preserve">
<style type="text/css">
	.st0{fill:none;}
	.st1{fill:#CACACA;}
</style>
<path class="st0" d="M0,0h24v24H0V0z"/>
<path class="st1" d="M3.2,4.5C5.6,2.1,9.4,1.9,12,4.1c2.7-2.3,6.8-2,9.2,0.7c2.1,2.4,2.1,6,0,8.5l-7.8,7.8c-0.7,0.7-1.9,0.8-2.7,0.1
	l-0.1-0.1l-7.8-7.8C0.6,10.7,0.8,6.9,3.2,4.5z M4.6,5.9c-1.7,1.7-1.8,4.4-0.1,6.2l0.1,0.2l7.4,7.4l5.3-5.3l-3.5-3.5l-1.1,1.1
	c-1.2,1.2-3.1,1.2-4.2,0s-1.2-3.1,0-4.2l0,0l2.1-2.1C8.8,4.2,6.4,4.2,4.7,5.7C4.7,5.7,4.6,5.9,4.6,5.9z M13.1,8.7
	c0.4-0.4,1-0.4,1.4,0l4.2,4.2l0.7-0.7c1.8-1.8,1.8-4.6,0-6.4c-1.7-1.7-4.4-1.8-6.2-0.1l-0.2,0.1L9.9,9.1C9.5,9.4,9.5,10,9.8,10.4
	l0.1,0.1c0.4,0.4,0.9,0.4,1.3,0.1l0.1-0.1L13.1,8.7z"/>
</svg>
